<mxfile host="app.diagrams.net" agent="Mozilla/5.0 (X11; Linux x86_64; rv:109.0) Gecko/20100101 Firefox/115.0" version="24.7.14">
  <diagram id="XXXXXXXXXX" name="Page-1">
    <mxGraphModel dx="761" dy="524" grid="1" gridSize="10" guides="1" tooltips="1" connect="1" arrows="1" fold="1" page="1" pageScale="1" pageWidth="827" pageHeight="1169" math="0" shadow="0">
      <root>
        <mxCell id="0" />
        <mxCell id="1" parent="0" />
        <mxCell id="2" value="Internaute" style="shape=umlLifeline;participant=umlActor;perimeter=lifelinePerimeter;whiteSpace=wrap;html=1;container=1;collapsible=0;recursiveResize=0;verticalAlign=top;spacingTop=36;outlineConnect=0;fillColor=#cdeb8b;strokeColor=#36393d;" parent="1" vertex="1">
          <mxGeometry x="120" y="10" width="25" height="360" as="geometry" />
        </mxCell>
        <mxCell id="FYmzxbrKtwJfaqk07coD-15" value="" style="html=1;points=[[0,0,0,0,5],[0,1,0,0,-5],[1,0,0,0,5],[1,1,0,0,-5]];perimeter=orthogonalPerimeter;outlineConnect=0;targetShapes=umlLifeline;portConstraint=eastwest;newEdgeStyle={&quot;curved&quot;:0,&quot;rounded&quot;:0};fillColor=#cce5ff;strokeColor=#36393d;" vertex="1" parent="2">
          <mxGeometry x="5" y="105" width="10" height="255" as="geometry" />
        </mxCell>
        <mxCell id="FYmzxbrKtwJfaqk07coD-36" value="" style="html=1;points=[[0,0,0,0,5],[0,1,0,0,-5],[1,0,0,0,5],[1,1,0,0,-5]];perimeter=orthogonalPerimeter;outlineConnect=0;targetShapes=umlLifeline;portConstraint=eastwest;newEdgeStyle={&quot;curved&quot;:0,&quot;rounded&quot;:0};fillColor=#cce5ff;strokeColor=#36393d;" vertex="1" parent="2">
          <mxGeometry x="10" y="320" width="10" height="20" as="geometry" />
        </mxCell>
        <mxCell id="3" value="Système" style="shape=umlLifeline;perimeter=lifelinePerimeter;whiteSpace=wrap;html=1;container=1;collapsible=0;recursiveResize=0;outlineConnect=0;fillColor=#ffff88;strokeColor=#36393d;" parent="1" vertex="1">
          <mxGeometry x="344" y="10" width="140" height="350" as="geometry" />
        </mxCell>
        <mxCell id="FYmzxbrKtwJfaqk07coD-16" value="" style="html=1;points=[[0,0,0,0,5],[0,1,0,0,-5],[1,0,0,0,5],[1,1,0,0,-5]];perimeter=orthogonalPerimeter;outlineConnect=0;targetShapes=umlLifeline;portConstraint=eastwest;newEdgeStyle={&quot;curved&quot;:0,&quot;rounded&quot;:0};fillColor=#cce5ff;strokeColor=#36393d;" vertex="1" parent="3">
          <mxGeometry x="65" y="110" width="10" height="40" as="geometry" />
        </mxCell>
        <mxCell id="13" value="7: Erreur de registration avec message d&#39;erreur" style="html=1;verticalAlign=bottom;endArrow=open;endSize=11;startSize=0;jumpSize=14;" parent="3" edge="1">
          <mxGeometry relative="1" as="geometry">
            <mxPoint x="65" y="325" as="sourcePoint" />
            <mxPoint x="-210" y="325" as="targetPoint" />
            <Array as="points">
              <mxPoint x="-95" y="325" />
            </Array>
          </mxGeometry>
        </mxCell>
        <mxCell id="FYmzxbrKtwJfaqk07coD-29" value="&lt;div style=&quot;font-size: 10px;&quot;&gt;&lt;font style=&quot;font-size: 10px;&quot;&gt;5. Ouverture&amp;nbsp;&lt;/font&gt;&lt;/div&gt;&lt;div style=&quot;font-size: 10px;&quot;&gt;&lt;font style=&quot;font-size: 10px;&quot;&gt;de la page&amp;nbsp;&lt;/font&gt;&lt;/div&gt;&lt;div style=&quot;font-size: 10px;&quot;&gt;&lt;font style=&quot;font-size: 10px;&quot;&gt;d&#39;accueil&lt;/font&gt;&lt;/div&gt;" style="html=1;align=left;spacingLeft=2;endArrow=block;rounded=0;edgeStyle=orthogonalEdgeStyle;curved=0;rounded=0;" edge="1" parent="3">
          <mxGeometry relative="1" as="geometry">
            <mxPoint x="75" y="250" as="sourcePoint" />
            <Array as="points">
              <mxPoint x="105" y="280" />
            </Array>
            <mxPoint x="80" y="280" as="targetPoint" />
          </mxGeometry>
        </mxCell>
        <mxCell id="FYmzxbrKtwJfaqk07coD-40" value="" style="html=1;verticalAlign=bottom;endArrow=open;endSize=8;" edge="1" parent="3" target="FYmzxbrKtwJfaqk07coD-15">
          <mxGeometry relative="1" as="geometry">
            <mxPoint x="66" y="140" as="sourcePoint" />
            <mxPoint x="-204" y="140" as="targetPoint" />
            <Array as="points">
              <mxPoint x="-89.5" y="140" />
            </Array>
          </mxGeometry>
        </mxCell>
        <mxCell id="FYmzxbrKtwJfaqk07coD-42" value="2. Remplir le formulaire" style="edgeLabel;html=1;align=center;verticalAlign=middle;resizable=0;points=[];" vertex="1" connectable="0" parent="FYmzxbrKtwJfaqk07coD-40">
          <mxGeometry x="0.3071" relative="1" as="geometry">
            <mxPoint x="38" y="-10" as="offset" />
          </mxGeometry>
        </mxCell>
        <mxCell id="FYmzxbrKtwJfaqk07coD-43" value="4. Vérification?" style="html=1;align=left;spacingLeft=2;endArrow=block;rounded=0;edgeStyle=orthogonalEdgeStyle;curved=0;rounded=0;" edge="1" parent="3">
          <mxGeometry relative="1" as="geometry">
            <mxPoint x="75" y="180" as="sourcePoint" />
            <Array as="points">
              <mxPoint x="105" y="210" />
            </Array>
            <mxPoint x="80" y="210" as="targetPoint" />
          </mxGeometry>
        </mxCell>
        <mxCell id="FYmzxbrKtwJfaqk07coD-44" value="" style="html=1;points=[[0,0,0,0,5],[0,1,0,0,-5],[1,0,0,0,5],[1,1,0,0,-5]];perimeter=orthogonalPerimeter;outlineConnect=0;targetShapes=umlLifeline;portConstraint=eastwest;newEdgeStyle={&quot;curved&quot;:0,&quot;rounded&quot;:0};fillColor=#cce5ff;strokeColor=#36393d;" vertex="1" parent="3">
          <mxGeometry x="65" y="170" width="10" height="180" as="geometry" />
        </mxCell>
        <mxCell id="FYmzxbrKtwJfaqk07coD-49" value="" style="html=1;points=[[0,0,0,0,5],[0,1,0,0,-5],[1,0,0,0,5],[1,1,0,0,-5]];perimeter=orthogonalPerimeter;outlineConnect=0;targetShapes=umlLifeline;portConstraint=eastwest;newEdgeStyle={&quot;curved&quot;:0,&quot;rounded&quot;:0};fillColor=#cce5ff;strokeColor=#36393d;" vertex="1" parent="3">
          <mxGeometry x="69" y="200" width="10" height="20" as="geometry" />
        </mxCell>
        <mxCell id="FYmzxbrKtwJfaqk07coD-50" value="" style="html=1;points=[[0,0,0,0,5],[0,1,0,0,-5],[1,0,0,0,5],[1,1,0,0,-5]];perimeter=orthogonalPerimeter;outlineConnect=0;targetShapes=umlLifeline;portConstraint=eastwest;newEdgeStyle={&quot;curved&quot;:0,&quot;rounded&quot;:0};fillColor=#cce5ff;strokeColor=#36393d;" vertex="1" parent="3">
          <mxGeometry x="69" y="270" width="10" height="20" as="geometry" />
        </mxCell>
        <mxCell id="9" value="[Succès]" style="text;html=1;align=center;verticalAlign=middle;resizable=0;points=[];autosize=1;strokeColor=none;" parent="1" vertex="1">
          <mxGeometry x="60" y="278" width="60" height="20" as="geometry" />
        </mxCell>
        <mxCell id="12" value="[Echec]" style="text;html=1;align=center;verticalAlign=middle;resizable=0;points=[];autosize=1;strokeColor=none;" parent="1" vertex="1">
          <mxGeometry x="60" y="320" width="60" height="20" as="geometry" />
        </mxCell>
        <mxCell id="FYmzxbrKtwJfaqk07coD-33" value="" style="line;strokeWidth=1;fillColor=none;align=left;verticalAlign=middle;spacingTop=-1;spacingLeft=3;spacingRight=3;rotatable=0;labelPosition=right;points=[];portConstraint=eastwest;strokeColor=inherit;dashed=1;" vertex="1" parent="1">
          <mxGeometry x="60" y="304" width="450" height="8" as="geometry" />
        </mxCell>
        <mxCell id="8" value="alt" style="shape=umlFrame;whiteSpace=wrap;html=1;fillColor=#ffcc99;strokeColor=#36393d;" parent="1" vertex="1">
          <mxGeometry x="50" y="248" width="460" height="120" as="geometry" />
        </mxCell>
        <mxCell id="FYmzxbrKtwJfaqk07coD-38" value="1: demande de registration" style="html=1;verticalAlign=bottom;endArrow=block;" edge="1" parent="1">
          <mxGeometry x="-0.0015" width="80" relative="1" as="geometry">
            <mxPoint x="135" y="120" as="sourcePoint" />
            <mxPoint x="413.5" y="120" as="targetPoint" />
            <Array as="points">
              <mxPoint x="250" y="120" />
            </Array>
            <mxPoint as="offset" />
          </mxGeometry>
        </mxCell>
        <mxCell id="4" value="3: envoi les données de formulaire(username,..)" style="html=1;verticalAlign=bottom;endArrow=block;" parent="1" edge="1">
          <mxGeometry width="80" relative="1" as="geometry">
            <mxPoint x="135" y="180" as="sourcePoint" />
            <mxPoint x="413.5" y="180" as="targetPoint" />
            <Array as="points">
              <mxPoint x="250" y="180" />
            </Array>
          </mxGeometry>
        </mxCell>
        <mxCell id="FYmzxbrKtwJfaqk07coD-25" value="" style="html=1;points=[[0,0,0,0,5],[0,1,0,0,-5],[1,0,0,0,5],[1,1,0,0,-5]];perimeter=orthogonalPerimeter;outlineConnect=0;targetShapes=umlLifeline;portConstraint=eastwest;newEdgeStyle={&quot;curved&quot;:0,&quot;rounded&quot;:0};fillColor=#cce5ff;strokeColor=#36393d;" vertex="1" parent="1">
          <mxGeometry x="130" y="284" width="10" height="20" as="geometry" />
        </mxCell>
        <mxCell id="FYmzxbrKtwJfaqk07coD-51" value="" style="html=1;verticalAlign=bottom;endArrow=open;endSize=8;" edge="1" parent="1">
          <mxGeometry relative="1" as="geometry">
            <mxPoint x="414" y="290" as="sourcePoint" />
            <mxPoint x="140" y="290" as="targetPoint" />
            <Array as="points">
              <mxPoint x="254.5" y="290" />
            </Array>
          </mxGeometry>
        </mxCell>
        <mxCell id="FYmzxbrKtwJfaqk07coD-56" value="6. OK" style="text;html=1;align=center;verticalAlign=middle;resizable=0;points=[];autosize=1;strokeColor=none;fillColor=none;" vertex="1" parent="1">
          <mxGeometry x="256" y="268" width="50" height="30" as="geometry" />
        </mxCell>
      </root>
    </mxGraphModel>
  </diagram>
</mxfile>
